# xmcd CD database file
#
# Track frame offsets:
#	150
#	27232
#	50120
#	67445
#	91069
#	106021
#	116316
#	132564
#	158223
#	196450
#
# Disc length: 2886 seconds
#
# Revision: 1
# Processed by: cddbd v1.5.2PL0 Copyright (c) Steve Scherf et al.
# Submitted via: CDex 1.70beta2
#
DISCID=8b0b440a
DTITLE=Diverse artiesten - Jazzism 1
DYEAR=2007
DGENRE=Jazz
TTITLE0=Buscemi - Lost
TTITLE1=George Benson and Al Jarreau - Summer Breeze
TTITLE2=Natalie Cole - Leavin'
TTITLE3=Sonny Rollins - Stairways To The Stars
TTITLE4=Marc Moulin - I Am You
TTITLE5=Jef Neve - Airplane
TTITLE6=Carel Kraayenhof Y Su Sexteto Canyengue - Ensuciando Papeles
TTITLE7=Franz Von Chossy Trio - The Voice In Between
TTITLE8=Young All Stars - Fantasy (On M Street)
TTITLE9=Trio Johnny Rosenberg - Love For Sale
EXTD=YEAR: 2007
EXTT0=
EXTT1=
EXTT2=
EXTT3=
EXTT4=
EXTT5=
EXTT6=
EXTT7=
EXTT8=
EXTT9=
PLAYORDER=
